<svg width="16" height="24" viewBox="0 0 16 24" fill="none" xmlns="http://www.w3.org/2000/svg">
<path d="M15.9287 6.19058L15.8014 5.54788C15.6865 4.97079 15.4269 4.42555 14.8354 4.21711C14.6453 4.15052 14.4301 4.12254 14.2853 3.98454C14.1386 3.84654 14.0962 3.63134 14.0624 3.43255C13.9997 3.06777 13.9418 2.70299 13.8771 2.33918C13.8221 2.02554 13.7787 1.67331 13.6359 1.3867C13.4477 1.00069 13.0597 0.774875 12.6747 0.626262C12.4771 0.552369 12.2754 0.489862 12.0706 0.439047C11.1056 0.185247 10.0923 0.0916394 9.10121 0.0375981C7.91112 -0.0278363 6.71786 -0.00784126 5.53063 0.0974295C4.64764 0.177526 3.71639 0.274994 2.87682 0.579941C2.56994 0.691883 2.25342 0.826986 2.01988 1.06342C1.73327 1.35485 1.64063 1.80648 1.84907 2.16933C1.99768 2.42699 2.24956 2.60938 2.51687 2.72905C2.86427 2.88538 3.22809 3.00311 3.60059 3.08224C4.63799 3.31192 5.71302 3.40167 6.77261 3.4393C7.94801 3.48755 9.12437 3.44895 10.2949 3.32543C10.5835 3.29358 10.872 3.25498 11.1596 3.21059C11.4993 3.15848 11.7174 2.71554 11.617 2.40576C11.4974 2.03616 11.176 1.89334 10.8122 1.94931C10.3625 2.02072 9.88578 2.05353 9.47854 2.0902C8.34271 2.1674 7.20302 2.16933 6.06622 2.09599C5.69321 2.07131 5.3209 2.03688 4.94969 1.99273C4.8667 1.98308 4.77598 1.96861 4.70071 1.95799C4.46621 1.92325 4.23364 1.88079 4.00204 1.83254C3.89492 1.80648 3.89492 1.65401 4.00204 1.62796H4.00686C4.27417 1.57005 4.54438 1.52373 4.81555 1.4861H4.81748C4.9439 1.47741 5.07128 1.45522 5.1977 1.43978C6.29582 1.3258 7.40046 1.28711 8.50387 1.32397C9.15429 1.34231 9.80375 1.38863 10.4503 1.46294L10.6703 1.49285C10.928 1.53145 11.1847 1.57777 11.4404 1.63278C11.8187 1.71481 12.3041 1.74183 12.473 2.15582C12.5261 2.28803 12.5502 2.43375 12.5801 2.57175L12.888 4.00384C12.8945 4.03455 12.8946 4.06627 12.8884 4.09703C12.8821 4.12779 12.8696 4.15694 12.8516 4.18264C12.8335 4.20835 12.8104 4.23008 12.7837 4.24647C12.7569 4.26286 12.727 4.27356 12.6959 4.27791H12.693C12.6573 4.2837 12.6206 4.28756 12.5849 4.29238C11.067 4.48605 9.53809 4.58114 8.00784 4.57706C6.49161 4.5755 4.977 4.47751 3.4732 4.2837C3.3381 4.26729 3.19045 4.24317 3.07079 4.2258C2.75619 4.17947 2.44449 4.12157 2.13182 4.07043C1.75257 4.0077 1.39069 4.03955 1.0481 4.2258C0.768246 4.3802 0.539536 4.61566 0.396712 4.90228C0.248099 5.20722 0.204673 5.53919 0.139052 5.8673C0.0724651 6.19541 -0.0307923 6.54957 0.0087736 6.88636C0.0927305 7.61302 0.600332 8.20362 1.33085 8.33582C4.94338 8.98052 8.62981 9.10272 12.2771 8.69867C12.3464 8.69079 12.4166 8.69855 12.4825 8.7214C12.5484 8.74424 12.6083 8.78158 12.6578 8.83066C12.7074 8.87974 12.7453 8.93932 12.7687 9.00499C12.7922 9.07067 12.8006 9.14077 12.7934 9.21014L12.7249 9.88276L11.7425 19.4432C11.7029 19.8389 11.6971 20.2461 11.6219 20.637C11.5041 21.2517 11.0882 21.629 10.4812 21.767C9.92438 21.8934 9.35694 21.96 8.78662 21.9648C8.15356 21.9687 7.52244 21.9407 6.88938 21.9436C6.21483 21.9475 5.38781 21.8857 4.86766 21.3839C4.40928 20.9419 4.34655 20.251 4.28382 19.6536L3.57839 12.8859L3.26765 9.90013C3.23195 9.5614 2.99166 9.22944 2.61337 9.24584C2.28912 9.26032 1.92048 9.53535 1.95908 9.90109L2.17911 12.0097L3.09491 20.8029C3.23677 22.0999 4.22785 22.7986 5.45536 22.9955C6.17141 23.1113 6.90579 23.1344 7.63341 23.146C8.56563 23.1615 9.50749 23.1972 10.4243 23.0283C11.783 22.7793 12.803 21.8722 12.9488 20.4642C13.2769 17.2488 13.6079 14.0343 13.9369 10.8188L14.1444 8.80483C14.1546 8.70496 14.1968 8.61103 14.2646 8.53699C14.3323 8.46294 14.4222 8.4127 14.5208 8.39373C14.9087 8.31845 15.2803 8.18914 15.5572 7.89385C15.9963 7.42291 16.0841 6.81013 15.9287 6.19058ZM14.5024 6.93558C14.3625 7.06779 14.1521 7.12955 13.9447 7.16043C11.6132 7.50687 9.24886 7.68154 6.89228 7.60434C5.20542 7.54644 3.5369 7.35922 1.86741 7.12376C1.70335 7.1006 1.52675 7.07068 1.41385 6.95005C1.20154 6.72231 1.30673 6.26489 1.36173 5.98986C1.41192 5.73895 1.50842 5.40216 1.80854 5.36645C2.27561 5.31145 2.81795 5.50928 3.28116 5.57876C3.83798 5.66368 4.39673 5.7322 4.95741 5.78334C7.35066 6.00144 9.78445 5.9667 12.1681 5.64824C12.6023 5.59034 13.0356 5.52279 13.466 5.44558C13.8511 5.3761 14.2766 5.24679 14.5082 5.64438C14.6684 5.91555 14.6897 6.2784 14.6646 6.58431C14.657 6.71791 14.5986 6.84355 14.5015 6.93558H14.5024ZM8.55887 10.6992C7.72702 11.0562 6.78323 11.4596 5.55862 11.4596C5.04678 11.4584 4.53746 11.3879 4.0445 11.2502L4.89082 19.9393C4.95355 20.692 5.58274 21.271 6.33836 21.271C6.33836 21.271 7.53788 21.3337 7.93836 21.3337C8.36973 21.3337 9.66189 21.271 9.66189 21.271C10.4175 21.271 11.0457 20.692 11.1085 19.9393L12.0156 10.3373C11.6063 10.1893 11.175 10.1116 10.7398 10.1076C9.94271 10.1076 9.30097 10.3817 8.55887 10.6992Z" fill="#FFD233"/>
</svg>
