<svg width="150" height="142" viewBox="0 0 150 142" fill="none" xmlns="http://www.w3.org/2000/svg">
<g filter="url(#filter0_d_15_118)">
<path d="M62.2257 30.6517L63.378 45.6586L65.0927 44.52C66.0317 43.8935 66.8016 43.0448 67.3341 42.0494C67.8665 41.0539 68.145 39.9425 68.1448 38.8136V11.8589C68.1448 10.0398 68.8674 8.29528 70.1537 7.00902C71.4399 5.72276 73.1845 5.00015 75.0035 5.00015C76.8225 5.00015 78.5671 5.72276 79.8533 7.00902C81.1396 8.29528 81.8622 10.0398 81.8622 11.8589V38.8136C81.862 39.9425 82.1405 41.0539 82.6729 42.0494C83.2054 43.0448 83.9753 43.8935 84.9143 44.52L86.629 45.6586L87.7813 30.6517C88.6112 19.8561 101.032 14.232 109.688 20.7272L113.7 23.7313C123.743 31.2654 130.435 42.4335 132.342 54.8424L139.75 102.984C142.205 118.944 126.156 131.386 111.307 125.027L104.071 121.921C97.4904 119.099 91.9582 114.289 88.2497 108.165C84.5412 102.041 82.8425 94.9095 83.3917 87.771L85.4219 61.3444L77.308 55.926C76.4989 55.3865 75.7288 54.7906 75.0035 54.1428C74.2827 54.796 73.5122 55.3922 72.699 55.926L64.5851 61.3444L66.6153 87.771C67.166 94.9106 65.468 102.043 61.7594 108.169C58.0508 114.295 52.5177 119.106 45.9363 121.927L38.6935 125.027C23.8513 131.386 7.79506 118.944 10.2505 102.984L17.6579 54.8424C19.5669 42.4324 26.2615 31.2641 36.3067 23.7313L40.3122 20.7272C48.9747 14.232 61.3958 19.8561 62.2257 30.6517Z" fill="url(#paint0_linear_15_118)" shape-rendering="crispEdges"/>
<path d="M109.388 21.1274L113.4 24.1312C113.4 24.1313 113.401 24.1314 113.401 24.1315C123.339 31.5872 129.961 42.6388 131.848 54.9183L139.255 103.06C141.651 118.632 125.992 130.771 111.503 124.568L104.268 121.461L104.268 121.461C97.7834 118.681 92.3318 113.941 88.6774 107.906C85.023 101.871 83.349 94.8437 83.8902 87.8094L85.9204 61.3827L85.9428 61.0911L85.6995 60.9286L77.5857 55.5102L77.5854 55.51C76.7959 54.9835 76.0444 54.402 75.3366 53.7699L75.0011 53.4702L74.6677 53.7723C73.9661 54.4081 73.2162 54.9884 72.4246 55.508L72.4213 55.5102L64.3075 60.9286L64.0642 61.0911L64.0866 61.3827L66.1168 87.8093L66.1168 87.8095C66.6595 94.8449 64.9862 101.874 61.3317 107.91C57.6772 113.946 52.2249 118.687 45.7396 121.468C45.7395 121.468 45.7394 121.468 45.7393 121.468L38.4968 124.568L38.4966 124.568C24.015 130.771 8.34893 118.632 10.7447 103.06L18.1521 54.9184L17.6588 54.8425L18.1521 54.9184C20.0412 42.6377 26.666 31.5857 36.6067 24.1313L36.6067 24.1313L40.6121 21.1272C48.9591 14.8686 60.9275 20.2879 61.7272 30.69C61.7272 30.69 61.7272 30.69 61.7272 30.69L62.8795 45.6968L62.9447 46.5465L63.6546 46.0751L65.3693 44.9366L65.3702 44.9359C66.3777 44.2637 67.2037 43.3532 67.775 42.2852C68.3462 41.2172 68.645 40.0247 68.6448 38.8136C68.6448 38.8135 68.6448 38.8135 68.6448 38.8135V11.8589C68.6448 10.1724 69.3147 8.55506 70.5072 7.36257C71.6997 6.17009 73.3171 5.50015 75.0035 5.50015C76.6899 5.50015 78.3073 6.17009 79.4998 7.36257C80.6923 8.55506 81.3622 10.1724 81.3622 11.8589V38.8136C81.362 40.0247 81.6608 41.2172 82.232 42.2852C82.8033 43.3532 83.6293 44.2637 84.6368 44.9359L84.6377 44.9366L86.3524 46.0751L87.0623 46.5465L87.1275 45.6968L88.2798 30.69C89.0795 20.2877 101.048 14.8689 109.388 21.1271L109.388 21.1274Z" stroke="black" shape-rendering="crispEdges"/>
</g>
<defs>
<filter id="filter0_d_15_118" x="0.00012207" y="0.000152588" width="150" height="141.723" filterUnits="userSpaceOnUse" color-interpolation-filters="sRGB">
<feFlood flood-opacity="0" result="BackgroundImageFix"/>
<feColorMatrix in="SourceAlpha" type="matrix" values="0 0 0 0 0 0 0 0 0 0 0 0 0 0 0 0 0 0 127 0" result="hardAlpha"/>
<feOffset dy="5"/>
<feGaussianBlur stdDeviation="5"/>
<feComposite in2="hardAlpha" operator="out"/>
<feColorMatrix type="matrix" values="0 0 0 0 0 0 0 0 0 0 0 0 0 0 0 0 0 0 0.25 0"/>
<feBlend mode="normal" in2="BackgroundImageFix" result="effect1_dropShadow_15_118"/>
<feBlend mode="normal" in="SourceGraphic" in2="effect1_dropShadow_15_118" result="shape"/>
</filter>
<linearGradient id="paint0_linear_15_118" x1="75.0001" y1="5.00015" x2="75.0001" y2="126.723" gradientUnits="userSpaceOnUse">
<stop stop-color="#FFFBF2"/>
<stop offset="1" stop-color="#FEE3D5" stop-opacity="0.8"/>
</linearGradient>
</defs>
</svg>
