<svg width="25" height="22" viewBox="0 0 25 22" fill="none" xmlns="http://www.w3.org/2000/svg">
<path d="M16.5392 3.1008L16.5392 3.10071H16.5295H11.6193C11.2746 3.10071 10.9439 2.96375 10.7002 2.71997C10.4564 2.4762 10.3194 2.14556 10.3194 1.8008C10.3194 1.45605 10.4564 1.12541 10.7002 0.881633C10.9439 0.637854 11.2746 0.5009 11.6193 0.5009H16.5295V0.500954L16.5368 0.500846C17.577 0.485571 18.6099 0.677257 19.5753 1.06476C20.5407 1.45225 21.4195 2.02783 22.1605 2.75802C22.9015 3.48821 23.4899 4.35843 23.8915 5.31808C24.2932 6.27773 24.5 7.30765 24.5 8.34795C24.5 9.38826 24.2932 10.4182 23.8915 11.3778C23.4899 12.3375 22.9015 13.2077 22.1605 13.9379C21.4195 14.6681 20.5407 15.2437 19.5753 15.6312C18.6099 16.0187 17.577 16.2103 16.5368 16.1951L16.5368 16.195H16.5295H8.5091H8.0091V16.695V19.8069C8.0091 19.807 8.0091 19.807 8.0091 19.807C8.00902 20.0641 7.93275 20.3153 7.78994 20.529C7.6471 20.7427 7.4441 20.9093 7.20661 21.0076C6.96912 21.106 6.70779 21.1317 6.45567 21.0816C6.20358 21.0315 5.972 20.9077 5.79021 20.726C5.7902 20.726 5.79018 20.726 5.79016 20.726L0.880076 15.8159C0.753848 15.6897 0.660627 15.546 0.596746 15.3911C0.4996 15.1529 0.47493 14.8912 0.525838 14.639C0.576795 14.3865 0.701204 14.1548 0.883446 13.9728L0.883676 13.9725L5.79016 9.06604C5.79018 9.06602 5.7902 9.06601 5.79021 9.06599C5.972 8.88428 6.20358 8.76054 6.45567 8.71041C6.70779 8.66028 6.96911 8.68602 7.20661 8.78438C7.4441 8.88275 7.6471 9.04931 7.78994 9.26303C7.93275 9.47672 8.00902 9.72795 8.0091 9.98497C8.0091 9.985 8.0091 9.98504 8.0091 9.98507V13.0952V13.5952H8.5091H16.5295V13.5953L16.5392 13.5951C17.9131 13.5684 19.2218 13.0038 20.184 12.0227C21.1462 11.0415 21.6852 9.72215 21.6852 8.34795C21.6852 6.97376 21.1462 5.65438 20.184 4.67326C19.2218 3.69214 17.9131 3.12756 16.5392 3.1008Z" fill="#19495D" stroke="white"/>
</svg>
